<svg version="1.1" xmlns="http://www.w3.org/2000/svg" xmlns:xlink="http://www.w3.org/1999/xlink" width="48" height="48"><defs><linearGradient x1="8.44322" y1="8.44322" x2="56.52734" y2="56.52734" gradientUnits="userSpaceOnUse" id="color-1"><stop offset="0" stop-color="#000000" stop-opacity="0.7"></stop><stop offset="1" stop-color="#000000" stop-opacity="0"></stop></linearGradient><filter id="dropshadow-base"><feColorMatrix type="matrix" values="0 0 0 0 0  0 0 0 0 0  0 0 0 0 0  0 0 0 .8 0"></feColorMatrix> <feOffset dx="0" dy="1"></feOffset> <feGaussianBlur stdDeviation="1"></feGaussianBlur> <feComposite in="SourceGraphic"></feComposite></filter><filter id="dropshadow-banner" x="-10%" y="-10%" width="120%" height="130%"><feColorMatrix type="matrix" values="0 0 0 0 0  0 0 0 0 0  0 0 0 0 0  0 0 0 .4 0"></feColorMatrix> <feOffset dx="0" dy="1"></feOffset> <feGaussianBlur stdDeviation="0.5"></feGaussianBlur> <feComposite in="SourceGraphic"></feComposite></filter></defs><g fill="none" fill-rule="nonzero" stroke="none" stroke-width="none" stroke-linecap="butt" stroke-linejoin="miter" stroke-miterlimit="10" stroke-dasharray="" stroke-dashoffset="0" font-family="none" font-weight="none" font-size="none" text-anchor="none" style="mix-blend-mode: normal"><path d="M2,24c0,-12.15026 9.84974,-22 22,-22c12.15026,0 22,9.84974 22,22c0,12.15026 -9.84974,22 -22,22c-12.15026,0 -22,-9.84974 -22,-22z" id="base 1 5" fill="#1325cf" stroke-width="1"></path><path d="M27.1875,37.51456l2.03735,2.03735c0.64166,0.032 1.28612,-0.09384 1.87328,-0.37751l-3.55552,-3.55552c-0.26937,0.60021 -0.38775,1.25264 -0.35512,1.89567zM39.10737,27.59103c-1.09799,-0.56622 -2.38164,-0.56863 -3.49387,-0.05381l3.56091,3.56091c0.53128,-1.09966 0.50893,-2.40032 -0.06703,-3.5071zM11.35595,23.13941c-1.4564,-1.4564 -1.52256,-3.83957 -0.1986,-5.42835l-2.31695,-2.31695c-0.52957,-0.52963 -0.52957,-1.32402 0,-1.8536l4.70012,-4.70012c0.52963,-0.52957 1.32402,-0.52957 1.8536,0l2.31695,2.31695c1.58878,-1.32396 3.90579,-1.32396 5.42835,0.1986l15.22578,15.22578l0,0l5.92839,5.92839c-2.22801,5.30668 -6.47679,9.55546 -11.78347,11.78347z" fill="url(#color-1)" stroke-width="1"></path><path d="M38.3652,26.58173l-2.51555,-2.51555c-0.72817,-0.72817 -1.655,-1.12536 -2.64799,-1.19158c-0.06622,-0.92677 -0.46341,-1.91975 -1.19158,-2.64799l-2.51555,-2.51555c-0.72817,-0.72817 -1.655,-1.12536 -2.64799,-1.19158c-0.06622,-0.92677 -0.46341,-1.91975 -1.19158,-2.64799l-2.51555,-2.51555c-1.52256,-1.52256 -3.83957,-1.52256 -5.42835,-0.1986l-2.31695,-2.31695c-0.52957,-0.52957 -1.32396,-0.52957 -1.8536,0l-4.70012,4.70012c-0.52957,0.52957 -0.52957,1.32396 0,1.8536l2.31695,2.31695c-1.32396,1.58878 -1.2578,3.97195 0.1986,5.42835l2.51555,2.51555c0.72817,0.72817 1.655,1.12536 2.64799,1.19158c0.06622,0.92677 0.46341,1.91975 1.19158,2.64799l2.51555,2.51555c0.72817,0.72817 1.655,1.12536 2.64799,1.19158c0.06622,0.92677 0.46341,1.91975 1.19158,2.64799l2.51555,2.51555c1.58878,1.58878 4.10433,1.58878 5.62695,0l6.15652,-6.15652c1.58878,-1.52262 1.58878,-4.03817 0,-5.62695zM14.59966,11.75314l1.39018,1.39018l-2.78036,2.78036l-1.39018,-1.39018zM15.85747,23.93374l-2.51555,-2.51555c-0.52957,-0.52957 -0.52957,-1.39018 0,-1.91975l6.15652,-6.15652c0.52957,-0.52957 1.39018,-0.52957 1.91975,0l2.51555,2.51555c0.52957,0.52957 0.52957,1.39018 0,1.91975l-6.15652,6.15652c-0.52957,0.52957 -1.39018,0.52957 -1.91975,0zM22.14636,30.22264l-2.51555,-2.51555c-0.52957,-0.52957 -0.52957,-1.39018 0,-1.91975l6.15652,-6.15652c0.52957,-0.52957 1.39018,-0.52957 1.91975,0l2.51555,2.51555c0.52957,0.52957 0.52957,1.39018 0,1.91975l-6.15652,6.15652c-0.52957,0.52963 -1.39012,0.52963 -1.91975,0zM36.5116,30.35508l-6.15652,6.15652c-0.52957,0.52957 -1.39018,0.52957 -1.91975,0l-2.51555,-2.51555c-0.52957,-0.52957 -0.52957,-1.39018 0,-1.91975l6.15652,-6.15652c0.52957,-0.52957 1.39018,-0.52957 1.91975,0l2.51555,2.51555c0.52957,0.59579 0.52957,1.45634 0,1.91975z" fill="none" stroke-width="0"></path><path d="M38.3652,26.58173l-2.51555,-2.51555c-0.72817,-0.72817 -1.655,-1.12536 -2.64799,-1.19158c-0.06622,-0.92677 -0.46341,-1.91975 -1.19158,-2.64799l-2.51555,-2.51555c-0.72817,-0.72817 -1.655,-1.12536 -2.64799,-1.19158c-0.06622,-0.92677 -0.46341,-1.91975 -1.19158,-2.64799l-2.51555,-2.51555c-1.52256,-1.52256 -3.83957,-1.52256 -5.42835,-0.1986l-2.31695,-2.31695c-0.52957,-0.52957 -1.32396,-0.52957 -1.8536,0l-4.70012,4.70012c-0.52957,0.52957 -0.52957,1.32396 0,1.8536l2.31695,2.31695c-1.32396,1.58878 -1.2578,3.97195 0.1986,5.42835l2.51555,2.51555c0.72817,0.72817 1.655,1.12536 2.64799,1.19158c0.06622,0.92677 0.46341,1.91975 1.19158,2.64799l2.51555,2.51555c0.72817,0.72817 1.655,1.12536 2.64799,1.19158c0.06622,0.92677 0.46341,1.91975 1.19158,2.64799l2.51555,2.51555c1.58878,1.58878 4.10433,1.58878 5.62695,0l6.15652,-6.15652c1.58878,-1.52262 1.58878,-4.03817 0,-5.62695zM14.59966,11.75314l1.39018,1.39018l-2.78036,2.78036l-1.39018,-1.39018zM15.85747,23.93374l-2.51555,-2.51555c-0.52957,-0.52957 -0.52957,-1.39018 0,-1.91975l6.15652,-6.15652c0.52957,-0.52957 1.39018,-0.52957 1.91975,0l2.51555,2.51555c0.52957,0.52957 0.52957,1.39018 0,1.91975l-6.15652,6.15652c-0.52957,0.52957 -1.39018,0.52957 -1.91975,0zM22.14636,30.22264l-2.51555,-2.51555c-0.52957,-0.52957 -0.52957,-1.39018 0,-1.91975l6.15652,-6.15652c0.52957,-0.52957 1.39018,-0.52957 1.91975,0l2.51555,2.51555c0.52957,0.52957 0.52957,1.39018 0,1.91975l-6.15652,6.15652c-0.52957,0.52963 -1.39012,0.52963 -1.91975,0zM36.5116,30.35508l-6.15652,6.15652c-0.52957,0.52957 -1.39018,0.52957 -1.91975,0l-2.51555,-2.51555c-0.52957,-0.52957 -0.52957,-1.39018 0,-1.91975l6.15652,-6.15652c0.52957,-0.52957 1.39018,-0.52957 1.91975,0l2.51555,2.51555c0.52957,0.59579 0.52957,1.45634 0,1.91975z" fill="#ffffff" stroke-width="0"></path><path d="M2,24c0,-12.15026 9.84974,-22 22,-22c12.15026,0 22,9.84974 22,22c0,12.15026 -9.84974,22 -22,22c-12.15026,0 -22,-9.84974 -22,-22z" id="base 1 1 1" fill="none" stroke-width="1"></path><g id="Layer_1 1 1" fill="#000000" stroke-width="1" font-family="Roboto, sans-serif" font-weight="normal" font-size="14" text-anchor="start"><g><g></g></g><g></g><g></g><g></g><g></g><g></g><g></g><g></g><g></g><g></g><g></g><g></g><g></g><g></g><g></g><g></g></g><rect x="2" y="2" width="44" height="22" fill="none" stroke-width="1"></rect><path d="M2,24v-22h44v22z" fill="none" stroke-width="1"></path><path d="M2,24v-22h44v22z" fill="none" stroke-width="1"></path><path d="M2,24v-22h44v22z" fill="none" stroke-width="1"></path><path d="M2,24v-22h44v22z" fill="none" stroke-width="1"></path></g></svg>